<svg width="385" height="140" viewBox="0 0 385 140" fill="none" xmlns="http://www.w3.org/2000/svg">
<g clip-path="url(#clip0_19_3160)">
<path d="M20.8198 122.873L20.6048 122.297L19.3496 105.637L20.1848 105.774C25.3785 108.479 30.7971 110.846 35.7957 113.867C36.0255 119.824 36.4875 125.788 36.2726 131.747L35.6993 131.779L20.8173 122.873H20.8198Z" fill="#52AF45"/>
<path d="M19.6089 104.553C19.3446 104.191 21.262 103.464 21.5214 103.306C25.3339 100.983 29.6802 98.7557 33.6039 96.6267C34.4737 96.1547 35.0741 95.0509 36.0625 95.4934C40.0233 97.6396 44.671 99.6579 48.7034 101.654C49.2124 101.907 51.7525 102.773 51.7525 103.257C51.7525 103.641 50.0574 104.449 49.6893 104.7C45.4295 107.603 40.5866 110.074 36.1489 112.727L19.6089 104.55V104.553Z" fill="#E84646"/>
<path d="M51.9526 114.492C51.3373 115.338 50.5887 115.438 49.709 116.014C46.3857 118.189 43.5442 119.507 42.1581 123.667C41.5428 125.51 41.4168 127.47 41.1277 129.343L37.5079 131.386C37.1546 131.435 37.2756 131.376 37.246 131.13C36.737 126.968 36.7963 121.479 36.7073 117.201C36.6925 116.478 36.6011 113.678 36.9396 113.27L51.6388 104.294L52.1231 104.484L51.9526 114.497V114.492Z" fill="#50A7DD"/>
<path d="M39.7886 122.629C39.7021 118.332 41.916 112.687 45.5259 110.283C47.557 108.931 49.1161 110.797 49.121 112.751C49.121 113.791 48.7134 114.644 48.2068 114.934C47.6855 115.232 47.3099 114.905 47.305 114.022C47.3025 113.604 47.4112 113.186 47.5372 112.936C47.2827 112.503 46.5069 112.048 45.5235 112.67C42.8895 114.337 41.7554 118.295 41.6986 121.425C41.6615 123.465 43.3194 126.713 45.8076 125.026C46.8651 124.311 47.6731 122.826 48.4317 120.967C48.7504 121.353 48.911 121.557 49.2446 122.024C48.2958 124.561 47.0999 126.639 45.8348 127.303C42.5757 129.014 39.8528 125.921 39.7886 122.629Z" fill="white"/>
<path d="M70.3108 2.16283C79.7816 10.7574 81.8818 25.8249 77.0192 37.3695C76.0802 39.5968 73.5872 43.2868 73.7651 45.5535C73.8861 47.0703 74.6941 48.6535 74.8127 50.3301C75.1685 55.3723 72.7125 61.3069 69.9896 65.4763C69.3447 66.4646 68.0746 67.6962 67.5656 68.7066C67.3507 69.1344 67.242 69.5425 67.4545 70.0022L71.7612 75.5926C72.8187 77.3848 73.6119 79.4572 73.7477 81.5517C74.069 86.4931 73.644 91.8524 71.9959 96.5258C75.0375 99.2079 76.5028 102.91 75.0647 106.868C74.7657 107.692 73.7379 109.184 73.602 109.821C73.3302 111.111 73.8762 113.946 73.7354 115.6C73.0683 123.435 64.0793 134.658 57.1732 138.272C50.9837 141.512 43.1708 137.34 41.5869 130.788C41.5523 130.643 38.7529 132.571 36.9294 133.436C36.7638 133.515 36.581 133.507 36.4179 133.421C34.1126 132.214 22.8924 125.749 19.952 123.644C19.8235 123.553 19.7469 123.411 19.7247 123.256C19.5419 121.919 19.5888 120.994 19.3442 119.217C16.4335 119.62 13.5302 120.316 10.5825 120.461C9.0802 120.534 7.06398 120.687 5.79889 119.917C0.508763 116.697 -0.328861 107.505 1.66513 102.234C2.62877 99.6824 6.97255 96.575 9.69545 96.6315C11.2472 96.6635 12.9768 97.224 14.4766 97.3444C16.8684 97.5337 20.7896 97.5559 23.1296 97.1453C25.8895 96.6635 25.2199 96.1398 26.2774 94.1043C27.1299 92.4621 28.3456 90.4732 29.5464 89.067C30.3321 88.1476 32.7141 86.3628 33.144 85.5933C33.6233 84.7304 33.8037 83.2824 34.2287 82.3556C29.3586 80.6446 24.8592 77.9035 20.6019 75.0173C18.8006 73.7955 16.6435 72.286 14.9312 70.961C10.328 67.3963 11.1631 60.8766 15.3537 57.3021C17.4021 55.5542 20.7476 54.2537 23.4186 54.7503C25.2051 56.0729 26.6481 57.8282 28.3431 59.2369C29.4105 60.1244 30.7201 61.0168 31.8023 61.742C34.8612 63.7898 38.3155 65.5009 41.666 67.0054C40.6875 65.8549 39.4595 65.0731 38.5774 63.8218C36.9887 61.5674 33.8334 55.891 34.5944 53.1794C35.0886 51.4217 37.8213 48.5625 38.9431 46.9228C40.0649 45.2831 40.9618 43.3409 42.1206 41.7946C43.2968 40.2237 44.9004 39.0166 46.0963 37.4678C43.7786 35.8281 41.6339 34.2572 39.9957 31.8922C35.1256 24.8661 33.2552 16.6526 34.6314 8.23261C34.9873 6.04955 35.0564 4.59419 37.7719 5.17928C43.7069 6.46011 52.1647 13.8918 55.8438 18.6316L58.8509 23.0838C58.8954 22.3585 58.7916 21.6038 58.8558 20.881C59.3648 15.0645 62.5152 5.6808 66.471 1.29748C66.8145 0.916429 67.3383 0.287081 67.8918 0.402625C68.5589 0.542753 69.7573 1.66378 70.3034 2.16038L70.3108 2.16283ZM69.6066 3.39203C69.1272 2.93723 68.003 2.035 67.363 2.35705C67.237 2.42097 66.0955 3.96238 65.8953 4.25739C60.1061 12.729 58.0404 25.5864 63.3998 34.7095C63.6913 35.2036 66.5106 39.0879 66.303 39.3141C63.8742 38.0849 61.3094 36.4279 58.584 35.9756C53.7733 35.1815 48.2558 36.7598 44.8732 40.2827C41.8711 43.4098 39.7881 47.8029 37.1122 51.2225C37.6434 51.5372 38.6565 53.3958 39.1062 53.3613C39.5386 53.3269 41.5103 51.4831 41.6759 51.6626C41.6635 52.7467 39.5534 54.1628 39.5855 55.0478C39.6004 55.4633 40.0179 57.2161 40.1711 57.6561C40.7197 59.2271 41.923 60.6038 43.4129 61.3167C43.6551 61.4322 43.8997 61.2061 43.8008 61.715C43.0077 61.7469 42.0984 61.5502 41.3769 61.2208C40.6678 60.8963 39.8647 59.8318 39.462 59.7704C39.1729 59.7261 38.6985 60.8398 38.5157 61.0659C40.2527 64.8052 43.3314 67.1726 47.0426 68.8099C50.23 70.2136 52.1079 70.5357 55.5745 70.3513C55.7821 70.3414 56.5555 70.2284 56.5555 70.5332C53.1061 71.5436 49.1083 70.9585 45.8887 69.4269C45.2265 69.1123 43.4574 67.8437 42.9632 67.7478C42.6667 67.6913 42.3677 67.9199 41.9847 67.8634C39.7857 67.5364 32.1606 63.4186 30.0949 62.0444L23.3124 56.2401C18.8105 57.4496 12.9323 66.2409 16.0678 70.366C17.3996 72.1189 24.2662 76.1531 26.4949 77.4487C28.185 78.4296 29.9862 79.2359 31.6664 80.2389C32.1507 79.3933 32.5016 78.3337 33.3466 77.7707C33.4603 78.6484 32.7239 79.4793 32.5411 80.2365C32.4151 80.7601 32.9068 81.0355 33.2156 80.5462C33.8408 79.5457 34.1768 78.2083 34.8983 77.1143C35.0614 76.8685 35.306 76.7333 35.474 76.8906C35.642 77.048 33.611 80.5807 33.8902 81.2887L34.6735 81.3083C36.109 77.7437 38.066 74.329 40.6752 71.4846C41.0088 71.1208 41.5919 70.489 41.9403 70.1866C42.1404 70.0145 42.2318 69.7613 42.5605 69.8375C40.5319 72.4286 38.3032 74.8526 37.1023 77.7904C36.3166 79.7104 35.3851 81.6501 35.0317 83.602C34.419 86.9676 31.5404 88.2336 29.581 90.7166C27.5425 93.2979 26.7247 96.4766 25.9068 99.643C28.1108 98.6105 35.4147 94.505 35.9385 94.3575C36.7144 94.6353 46.0642 99.262 50.4129 101.263C50.576 101.339 51.3419 101.669 51.416 101.585C51.3592 101.096 51.3222 100.776 51.4259 100.287C51.8732 98.1852 56.5184 92.8751 57.9391 90.5273C59.6688 87.6682 60.6225 84.4403 62.4682 81.6304C63.6197 79.88 65.3764 77.7978 67.5409 77.4216C66.7651 78.0436 65.8978 78.5156 65.1442 79.1794C61.344 82.5179 59.8911 88.7671 57.2325 93.1775C55.9452 95.3138 53.2124 97.8165 54.2674 100.422C54.5368 101.091 56.1428 102.763 56.7284 103.264C57.482 103.906 60.4397 105.964 61.3316 105.558C61.5095 105.477 61.8678 105.027 62.0408 104.845C67.0715 99.5201 72.4357 85.1016 68.633 78.3607C68.2179 77.6232 66.0535 74.6338 65.411 74.3363C64.5537 73.9381 64.0965 74.9018 63.2886 74.9509L64.6303 73.7242L64.3486 72.8367L61.8703 73.8053C61.9815 73.0703 63.6592 72.7138 63.9211 72.3082C64.0768 72.0623 63.8346 71.2732 63.6493 71.1453C63.4047 70.9757 62.3941 71.5805 62.2286 71.0765C63.9656 70.8282 63.1972 70.4545 63.6048 69.3581C64.0644 68.124 66.5452 65.319 67.3952 63.7825C69.5077 59.9646 71.5289 53.0663 70.8939 48.774C70.8667 48.5945 70.5702 47.5153 70.5208 47.4686C70.3034 47.2744 69.1396 47.4514 68.9592 47.0851L70.2786 47.0949L70.3775 46.554L70.716 47.1834L72.1466 47.4366C72.1046 47.825 71.3139 47.5743 71.0965 47.503L70.7358 47.6972C71.4523 49.5877 71.309 51.6306 71.2645 53.6096C71.3312 53.7006 72.8113 52.2083 73.2116 52.4616C72.8409 53.0835 71.3955 53.7325 71.1262 54.266C70.8148 54.8806 70.6987 56.8031 70.4689 57.6684C69.8858 59.849 68.8011 62.2828 67.6867 64.2471C67.0344 65.3952 64.2349 69.036 64.3461 70.0907C65.2084 70.3611 65.8336 70.5602 64.5561 70.9216L64.5314 71.7796L66.4785 71.2511C66.7181 72.4188 64.1163 71.9665 65.1541 73.1907L67.1876 72.4852C67.0072 73.2547 66.0189 73.3235 65.5939 73.8914C65.7347 73.8717 65.8484 73.9184 65.9423 74.0241C70.968 79.6833 71.4177 83.0366 69.7622 90.4806C68.5392 95.98 65.5049 101.806 61.8703 106.084C62.9229 106.281 64.3436 107.08 65.2455 106.268C65.7224 105.838 67.1678 103.628 67.5755 102.945C70.6246 97.8435 72.5296 92.2851 72.6112 86.2989C72.6754 81.5222 72.1738 78.5894 69.6362 74.5379C68.8332 73.2571 66.7132 71.1429 66.2586 69.9629C65.5939 68.2321 67.489 67.0693 68.3934 65.8352C70.0439 63.5833 71.7192 59.9375 72.5494 57.2726C72.9274 56.0582 73.0435 54.743 73.3821 53.5162C72.7199 53.2999 72.3122 54.3644 71.6129 54.3103L73.303 52.8918C73.4241 51.7806 73.6786 50.78 73.5698 49.632C73.4834 48.715 72.4654 45.7206 72.0898 44.757C71.8501 44.1399 71.2423 43.7244 71.2522 42.9328C72.9497 38.4979 74.9362 34.2916 75.9271 29.5911C77.0908 24.0696 76.5917 18.4939 75.3365 13.0388L76.31 16.2101C78.304 25.5004 76.4311 31.4595 72.9422 39.8475C72.621 40.6195 71.5956 42.6894 72.8508 42.8468C75.0202 38.9011 77.0711 35.0807 77.7926 30.5647C79.2627 21.3653 76.5349 9.97315 69.6016 3.39695L69.6066 3.39203ZM51.8905 16.2666C49.6024 13.8992 40.7765 6.45519 37.6978 6.49698C37.2975 6.5019 36.8231 6.74774 36.3734 6.69365C36.193 8.00398 35.6396 9.34134 35.474 10.6492C34.6092 17.572 38.4984 29.5174 43.9763 34.1097C44.7299 34.7415 46.7461 36.1034 47.6554 36.2804C48.5054 36.4476 49.9434 35.3782 50.8453 35.1225C54.26 34.1613 58.0009 34.7611 61.2847 35.9264L63.6444 37.19C61.9345 34.6726 60.6324 32.3027 59.6959 29.392C59.3327 28.2611 59.2784 27.0565 58.7545 25.9207C57.2448 22.6511 54.3934 18.8553 51.888 16.2642L51.8905 16.2666ZM37.9572 60.3014C38.0734 60.3899 38.3501 59.9425 38.4045 59.7777C38.7454 58.728 38.4736 55.0945 38.0857 54.0866C37.8189 53.3908 37.0949 52.5919 36.8033 51.8371C34.5721 54.7774 36.9071 57.4669 37.9572 60.2989V60.3014ZM22.0078 55.8935C15.8232 56.0582 10.3082 63.7136 14.657 69.1196C14.7904 67.9421 14.5631 67.1234 14.7953 65.9065C15.4155 62.6442 17.6171 58.905 20.3276 56.9506C20.8761 56.5548 21.6149 56.4442 22.0103 55.8935H22.0078ZM19.8359 104.641L36.0917 112.677C40.5294 110.025 45.3698 107.552 49.6321 104.651C50.0002 104.4 51.3493 103.628 51.4951 103.267C51.2554 102.736 49.1577 101.856 48.6487 101.602C44.6162 99.6062 39.9685 97.5878 36.0077 95.4417C35.2343 95.6875 34.419 96.103 33.5492 96.575C29.6255 98.7039 25.3484 101.165 21.5358 103.488C21.2789 103.645 20.2535 104.024 19.8384 104.641H19.8359ZM73.0386 107.751C75.6726 104.951 74.279 100.142 71.7068 97.7009C71.3831 97.7009 70.6048 100.484 70.6493 100.897C70.716 101.524 71.9292 103.857 72.2331 104.759C72.5568 105.723 72.7396 106.775 73.0386 107.751ZM24.8419 98.05C23.4162 98.1631 21.9287 98.6646 20.508 98.7605C19.4109 98.8342 17.7035 98.8121 16.6238 98.7359C15.6502 98.6671 10.7382 97.6517 10.3156 98.227C13.0509 102.394 13.4635 107.409 12.3887 112.196C12.0527 113.698 11.4819 115.603 10.8222 116.985C10.6887 117.265 9.69792 118.779 9.7844 118.86C11.0248 118.86 12.3763 118.86 13.5426 118.814C14.1924 118.787 18.9983 118.199 19.1613 117.965C18.897 114.18 18.6944 111.571 18.4621 108.368C18.3781 107.225 18.1261 105.533 18.304 104.572C19.3195 103.36 22.7836 101.846 24.1303 100.776L24.8419 98.0475V98.05ZM8.14869 98.6105C5.84584 98.9154 3.27119 102.148 2.67077 104.287C1.36615 108.926 1.78373 114.484 5.52462 117.902C6.89843 119.155 7.95102 119.222 9.25069 117.894C11.7734 115.32 12.7124 108.181 12.0057 104.744C11.6771 103.144 10.2885 98.3278 8.14622 98.6105H8.14869ZM53.1926 100.344V102.9C53.1926 103.004 54.0599 104.508 54.1958 104.705C54.8456 105.646 57.9811 107.699 59.0906 107.365C59.4414 107.259 60.1086 106.364 60.6373 106.249C60.6818 105.929 60.3977 105.912 60.2 105.801C59.5427 105.437 58.7026 105.179 58.0306 104.786C56.0712 103.633 54.6875 102.003 53.1926 100.341V100.344ZM53.6769 117.484C56.6345 118.6 58.6582 121.242 59.4661 122.917C61.4107 126.941 61.1266 130.54 59.4958 134.577C59.434 134.729 59.2536 135.014 59.4834 135.093L64.1138 130.973C66.7972 128.138 72.201 118.858 72.5024 115.069C72.71 112.444 72.1664 109.243 71.5388 106.684C71.1558 105.125 70.4417 103.653 70.0217 102.106C67.6274 104.103 67.1011 108.085 63.6913 108.943C60.3557 109.781 56.2935 108.481 53.7411 106.232C53.4273 105.956 53.284 105.437 52.8393 105.28V112.864C53.9536 112.218 54.774 111.195 55.5869 110.219C56.1774 110.595 55.0976 112.191 54.858 112.535C53.7584 114.121 52.1672 114.966 49.3924 116.989C49.3924 116.989 49.9138 116.928 50.6007 116.933C51.9176 116.876 53.4249 117.385 53.6794 117.481L53.6769 117.484ZM51.9522 114.189L51.9745 104.712C51.9745 104.528 51.7719 104.417 51.6162 104.516L36.8108 113.833C36.8552 114.711 36.8651 116.699 36.8799 117.42C36.9689 121.7 37.1221 126.872 37.2456 131.125C37.253 131.374 37.1542 131.43 37.5075 131.381L41.1274 129.338C41.4165 127.465 41.5425 125.505 42.1577 123.662C43.5439 119.502 45.9035 118.317 49.2269 116.144C50.1065 115.569 50.8478 115.106 51.9522 114.187V114.189ZM20.8193 122.872L34.9008 131.081L36.2746 131.745C36.0127 124.987 35.6371 119.207 35.7977 113.865C30.7991 110.843 19.3516 105.634 19.3516 105.634L20.8193 122.87V122.872ZM59.9233 107.928H62.6684C62.7549 107.928 64.0471 107.264 64.1731 107.048C62.5671 106.979 62.0334 105.777 60.6274 106.957C60.4891 107.072 59.7256 107.766 59.9208 107.928H59.9233ZM55.6066 119.637C48.2039 113.983 41.6561 122.206 42.9583 129.67C43.8527 134.796 48.8661 140.054 54.4305 137.999C61.638 135.336 61.2081 123.912 55.6091 119.637H55.6066Z" fill="black"/>
<path d="M37.9578 60.3015C36.9077 57.4695 34.5727 54.7775 36.8039 51.8397C37.0954 52.5945 37.8169 53.3934 38.0863 54.0892C38.4742 55.0971 38.746 58.7306 38.405 59.7803C38.3531 59.9426 38.0739 60.3925 37.9578 60.304V60.3015Z" fill="white"/>
<path d="M69.847 44.4277C69.4245 44.5359 69.4146 44.1573 69.2589 43.877C68.9056 43.2403 67.3588 40.5582 67.3588 40.1083C67.8555 38.6332 68.7549 37.2983 69.2787 35.8356C71.6729 29.1684 71.033 18.2089 68.2879 11.677C68.0284 11.0624 67.1908 9.87742 67.087 9.51604C66.709 8.17375 68.0556 9.88971 68.2879 10.2634C71.6384 15.6694 72.3994 27.2066 71.0058 33.3231C70.5586 35.2825 68.7993 38.6308 68.8043 40.305C68.8067 41.4751 69.884 43.1542 69.847 44.4301V44.4277Z" fill="black"/>
<path d="M56.3286 50.1213C57.2082 51.1833 56.0049 53.5582 54.6879 53.7647C51.5351 54.2637 52.7063 49.7206 54.9004 49.5977C55.2389 49.578 56.1235 49.8706 56.3286 50.1213Z" fill="black"/>
<path d="M42.0299 87.1128C40.4114 86.3949 38.3705 85.9622 36.5989 85.3673C36.3246 85.2764 36.0924 85.5222 36.1863 84.9961C38.4273 85.4951 40.8389 85.9032 42.9638 86.803C43.3147 86.9505 43.8163 87.0833 43.9818 87.4643C43.3172 87.4373 42.6822 87.2332 42.0323 87.1128L43.4481 87.9093C43.5272 88.342 43.122 88.1723 42.8724 88.1305C41.9631 87.9732 40.2484 87.2652 39.3292 86.894C39.0895 86.7981 38.5311 86.6776 38.4891 86.4097C39.685 86.594 40.8414 86.894 42.0323 87.1128H42.0299Z" fill="black"/>
<path d="M71.9744 46.0158C72.2388 46.2666 71.9571 46.3354 71.7125 46.3674C70.9391 46.4681 69.128 46.2813 68.4831 45.8732C68.2459 45.7233 68.0062 45.6618 68.0778 45.3102L71.9744 46.0158Z" fill="black"/>
<path d="M44.9282 21.4343C48.4343 24.8908 51.7824 28.9668 53.0153 33.8443C51.6242 32.5413 50.9077 30.5402 49.902 28.9201C47.9871 25.8373 45.4742 22.9192 42.7439 20.5247C41.7506 19.652 38.3779 17.4296 37.9257 16.6773C37.8121 16.4856 37.649 16.252 38.0419 16.3848C40.4732 17.2083 43.1343 19.6667 44.9282 21.4368V21.4343Z" fill="black"/>
<path d="M268.033 83.1326C264.551 82.8524 259.844 83.0392 256.83 82.6631H256.736C256.173 82.6631 255.419 82.1026 255.419 81.3527C255.419 80.7898 255.888 80.1358 256.736 80.1358L260.595 80.4161C261.443 80.4161 261.537 79.8556 261.537 79.1992L263.513 50.6351C263.701 46.7951 263.607 41.2687 258.337 40.9884C253.067 40.6123 248.829 46.3256 248.454 54.5686L247.043 78.0757C246.949 79.0124 247.043 79.4795 247.984 79.4795L251.372 79.8556C252.219 79.8556 252.689 80.4161 252.689 81.0725C252.689 81.8223 252.123 82.3828 251.559 82.3828H251.372C247.512 82.1026 243.653 81.7264 239.793 81.4462C236.309 81.1635 232.828 81.3527 229.816 81.07H229.628C229.065 81.07 228.499 80.5071 228.499 79.7597C228.499 79.1033 228.874 78.5428 229.722 78.5428L233.3 78.7296C234.241 78.7296 234.523 78.356 234.711 77.23L236.406 49.0396C236.69 45.1062 236.784 39.6756 231.511 39.2995C226.147 39.0168 221.627 46.1363 221.343 52.8796L219.932 76.3868C219.838 77.3234 219.932 77.7905 220.874 77.7905L224.355 78.1642C225.109 78.2576 225.672 78.914 225.672 79.4745C225.672 80.2243 224.919 80.7849 224.355 80.6914H224.167C221.155 80.4087 215.789 79.8482 212.307 79.7548C208.448 79.4721 205.53 79.6614 201.67 79.3787H201.482C200.917 79.3787 200.259 78.7223 200.259 77.9749C200.353 77.4119 200.825 76.9448 201.767 76.8514L206.38 76.9449C207.131 76.8514 207.509 76.5687 207.697 75.728L209.673 41.9177C209.767 40.3246 209.107 39.3904 207.321 39.2946L202.614 38.6382C201.863 38.5448 201.485 37.7015 201.485 37.0451C201.485 36.3887 201.957 35.8282 202.708 35.9216C207.131 36.1085 216.167 36.2978 221.064 36.1085C221.818 36.1085 222.287 36.578 222.287 37.3254L221.909 44.0688H222.097C224.639 38.825 229.628 36.1085 235.37 36.3887C241.019 36.7624 246.949 40.1353 248.36 45.7528H248.547C249.677 42.6626 254.006 37.4163 263.138 38.0727C271.139 38.4464 276.127 44.3466 275.752 52.4961L273.963 79.6565C273.869 80.4997 274.057 80.7799 274.904 80.8734L279.799 81.5298C280.646 81.7166 281.116 82.2796 281.116 82.9335C281.116 83.6833 280.456 84.057 279.893 84.057C275.846 83.8701 271.892 83.494 268.033 83.1203V83.1326Z" fill="#E84646"/>
<path d="M292.032 100.083C288.642 99.6137 280.453 98.8663 277.441 98.5836L277.348 98.4902C276.688 98.4902 276.218 97.8363 276.312 97.0865C276.406 96.4301 276.972 95.8696 277.723 95.963L284.97 96.4325C285.818 96.4325 286.381 95.963 286.477 95.2156L292.879 40.5213C293.067 39.0217 292.314 37.9941 290.527 37.6179L284.125 36.5879C283.562 36.5879 282.996 35.8381 283.09 35.0882C283.184 34.4319 283.656 33.7779 284.407 33.7779C288.83 34.3409 299.845 35.4644 304.646 36.0249C305.397 36.1183 305.681 36.5879 305.587 37.3352L304.364 45.0152H304.648C307 39.3954 311.332 35.5553 317.731 36.3052C325.92 37.2418 335.709 49.1355 334.205 61.5922C332.794 73.4859 322.345 83.3195 312.555 82.196C306.059 81.4462 302.765 76.9522 301.636 70.8628L301.352 70.7694C301.164 72.6427 300.976 77.6996 300.598 80.9766L298.716 96.5235C298.622 97.3667 298.81 97.7404 299.563 97.9272L308.881 99.6137C309.634 99.7071 309.916 100.364 309.822 101.017C309.728 101.767 309.165 102.234 308.599 102.141C304.552 101.674 295.985 100.548 292.032 100.081V100.083ZM321.023 60.0926C323.093 42.4856 320.929 39.6756 315.846 39.1126C309.54 38.3628 304.833 43.9827 303.138 57.9366C301.631 71.4233 304.549 78.4469 311.139 79.1967C316.316 79.7597 318.952 77.6037 321.023 60.0901V60.0926Z" fill="#50A7DD"/>
<path d="M334.578 42.8592C333.824 42.8592 333.543 42.2987 333.637 42.016C333.637 41.5465 334.012 41.1728 334.672 40.8925C339.473 39.1126 343.708 34.9924 344.18 30.4026C344.274 28.6227 343.52 27.2165 341.168 27.0296C336.367 26.5601 334.202 23.283 334.484 20.0994C334.766 17.0092 337.402 13.919 341.64 14.2927C346.441 14.7623 349.546 19.3496 348.793 26.8428C348.133 33.6796 343.429 40.5164 336.745 42.5765C336.085 42.7634 335.144 42.9502 334.58 42.8568L334.578 42.8592Z" fill="#ED701D"/>
<path d="M354.058 83.9193C353.658 84.5339 353.307 84.7625 352.84 84.8191C352.373 84.8756 351.872 84.6519 351.783 83.9095C351.578 82.99 351.812 80.2268 351.009 75.1355C350.204 70.0441 349.495 67.2981 349.416 66.6466C349.359 66.182 349.687 65.7641 350.154 65.71C350.527 65.6657 350.925 65.8059 351.167 66.2484C354.12 71.084 356.581 74.1841 359.897 76.5245C363.005 78.7001 366.245 79.6343 370.895 78.8894C377.322 77.9331 380.032 75.251 379.306 70.8087C378.898 68.2151 377.667 66.6663 373.222 65.9706C367.507 64.9553 362.276 64.8274 356.292 63.9375C350.004 62.8951 347.525 58.8535 346.631 53.0173C346.268 50.7974 346.352 48.3341 346.769 46.3034C348.069 40.5828 352.966 37.1681 358.55 36.3125C361.53 35.8602 364.913 36.401 367.638 37.7728L369.548 38.6775C369.944 38.8176 370.131 38.7955 370.319 38.7734C370.692 38.7291 370.952 38.5103 371.209 38.2891C372.135 37.3303 374.028 34.9334 374.569 33.9254C374.982 33.4043 375.355 33.36 375.542 33.3379C376.103 33.2715 376.696 33.4829 376.788 34.2278C376.961 34.867 376.852 37.8982 377.462 42.1635C377.87 44.7571 378.881 48.4078 379.049 49.8042C379.222 50.4434 378.787 50.7777 378.32 50.8343C377.947 50.8785 377.551 50.7384 377.213 50.3057C375.567 47.6728 374.559 46.3772 372.236 43.6361C368.592 39.356 362.956 38.2375 359.136 38.7881C351.412 39.9927 350.456 44.6367 350.841 47.0434C351.338 50.3795 352.744 51.8152 358.019 52.3167C362.721 52.7911 369.234 53.3344 373.959 53.9958C380.4 54.7357 383.36 58.0595 384.448 65.4764C385.127 69.5451 384.351 73.3187 381.841 76.0697C379.422 78.8108 375.757 80.6644 371.389 81.3749C367.663 81.9133 363.625 81.4535 360.189 79.6958C358.862 78.9116 358.382 78.8747 357.821 78.9411C357.167 79.0197 356.591 79.7474 356.119 80.5587L354.061 83.9169L354.058 83.9193Z" fill="#ED701D"/>
<path d="M92.1339 126.275H96.4777V100.585H88.4251V105.733H84.9585V97.5265H111.656V105.733H108.19V100.585H100.137V126.275H104.481V129.481H92.1314V126.275H92.1339Z" fill="#7951AD"/>
<path d="M111.414 119.136C111.414 113.307 115.661 108.402 122.103 108.402C128.545 108.402 132.792 113.258 132.792 119.136C132.792 125.014 128.545 129.869 122.103 129.869C115.661 129.869 111.414 125.061 111.414 119.136ZM129.278 119.136C129.278 114.571 126.35 111.318 122.103 111.318C117.856 111.318 114.928 114.573 114.928 119.136C114.928 123.699 117.856 126.953 122.103 126.953C126.35 126.953 129.278 123.748 129.278 119.136Z" fill="#7951AD"/>
<path d="M138.065 139.194C136.113 139.194 134.452 138.078 134.452 136.475C134.452 135.115 135.379 134.338 136.55 134.338C137.721 134.338 138.453 135.214 138.747 136.136C139.527 135.843 140.308 135.214 141.235 133.805C141.724 133.077 142.211 132.057 142.796 130.892L144.066 128.318L136.256 111.758H133.375V108.796H143.088V111.662H139.819C139.819 111.662 145.724 124.97 145.675 124.97L151.63 111.662H148.213V108.796H157.78V111.758H154.948L145.136 132.738C144.6 133.854 144.062 134.825 143.429 135.7C141.867 137.935 140.16 139.196 138.06 139.196L138.065 139.194Z" fill="#7951AD"/>
<path d="M170.816 100.73H167.644V97.5241H178.478V100.73H174.816L183.845 123.797L192.874 100.73H189.017V97.5241H199.851V100.73H196.728L184.819 129.965H182.721L170.811 100.73H170.816Z" fill="#7951AD"/>
<path d="M198.297 123.944C198.297 120.156 201.665 117.68 206.303 117.68C208.549 117.68 211.232 118.263 212.307 118.651V115.787C212.307 114.622 211.966 113.602 211.381 112.874C210.454 111.854 208.939 111.222 206.842 111.222C205.181 111.222 204.304 111.66 203.62 112.097C203.765 112.437 203.914 112.874 203.914 113.312C203.914 114.526 203.034 115.448 201.717 115.448C200.4 115.448 199.57 114.477 199.57 113.214C199.57 110.834 202.303 108.405 207.281 108.405C210.358 108.405 212.601 109.327 213.968 110.834C215.042 111.999 215.529 113.553 215.529 115.301V126.568H218.897V129.481H212.406V126.858C210.699 128.51 208.013 129.869 205.181 129.869C201.178 129.869 198.3 127.489 198.3 123.944H198.297ZM212.307 124.284V120.835C210.746 120.397 208.695 120.009 206.693 120.009C203.375 120.009 201.715 121.562 201.715 123.699C201.715 125.69 203.227 127.148 206.058 127.148C208.549 127.148 210.696 125.884 212.307 124.281V124.284Z" fill="#7951AD"/>
<path d="M224.021 127.101C223.386 125.985 223.045 124.527 223.045 122.875V111.753H219.727V108.791H226.413V122.243C226.413 123.408 226.608 124.33 226.999 125.011C227.634 126.226 228.706 126.759 230.416 126.759C233.003 126.759 235.296 125.107 237.25 123.116V111.753H233.833V108.791H240.618V126.565H243.937V129.478H237.347V125.641C235.395 127.922 232.563 129.867 229.586 129.867C226.853 129.867 225.047 128.846 224.021 127.099V127.101Z" fill="#7951AD"/>
<path d="M245.839 126.568H249.353V96.848H245.839V93.9348H252.721V126.57H256.234V129.483H245.837V126.57L245.839 126.568Z" fill="#7951AD"/>
<path d="M261.752 127.44C261.361 126.663 261.215 125.692 261.215 124.576V111.756H257.358V108.793H261.215V103.791L264.534 102.48V108.793H270.928V111.756H264.534V124.092C264.534 124.773 264.63 125.257 264.875 125.695C265.265 126.422 266.046 126.764 267.316 126.764C268.586 126.764 270.049 126.182 271.22 125.501L270.78 128.706C269.705 129.289 268.243 129.872 266.338 129.872C264.141 129.872 262.579 129.046 261.749 127.443L261.752 127.44Z" fill="#7951AD"/>
<path d="M163.164 85.0993C155.163 85.8492 150.55 81.8199 149.984 75.9197C149.325 69.7393 152.621 65.4297 157.61 62.9959C162.035 60.749 168.153 58.593 170.883 57.376C173.141 56.346 173.141 55.6896 173.048 54.2858L172.388 48.103C171.822 42.2963 170.411 40.423 164.199 40.9859C160.434 41.3596 156.386 42.8592 156.574 44.5432C156.668 45.2931 157.234 45.4799 157.797 45.8536L158.645 46.2297C160.809 47.3532 162.032 49.3199 162.22 51.2866C162.692 55.783 159.396 58.3102 155.915 58.5905C152.431 58.9666 148.665 56.9975 148.196 52.4101C147.911 49.4133 149.325 45.947 152.903 43.2329C156.102 40.7032 160.997 38.9234 166.458 38.4563C177.661 37.3328 184.154 41.0794 184.908 48.8528L187.448 75.9197C187.729 78.4494 188.765 79.6663 191.307 79.386C195.448 79.0099 194.885 71.706 194.601 68.9895C194.225 65.8993 193.944 63.5589 193.944 63.0894C193.85 62.433 194.319 61.9659 194.791 61.9659C195.167 61.8724 195.733 62.2461 195.92 62.9025C196.202 64.6824 196.674 67.1162 196.862 68.9895C197.05 71.2365 197.146 73.6727 196.674 75.9197C195.826 80.5095 193.19 82.2894 187.544 82.7565C184.908 83.0368 181.896 82.9433 180.201 82.2869C177.376 81.2569 175.494 78.8206 175.024 75.3567C173.613 81.3503 168.719 84.5339 163.164 85.0969V85.0993ZM173.332 57.8431C171.731 58.7798 170.038 59.5296 168.343 60.3728C166.554 61.2161 164.953 62.1527 163.824 63.3696C161.847 65.6166 161.563 68.5199 162.035 73.953C162.601 79.2902 163.73 82.1001 166.742 81.7264C168.906 81.5396 171.449 79.7597 172.862 76.1065C173.991 73.2966 174.463 69.55 174.085 64.9602L173.332 57.8407V57.8431Z" fill="#F4B925"/>
<path d="M78.129 83.1941C77.1653 83.1941 76.3005 82.8475 75.6878 82.2157C75.1195 81.6306 74.8131 80.8537 74.818 80.0154C74.7661 78.5797 75.9645 76.9744 77.9486 76.7629L85.8455 76.0205C87.6467 75.8287 87.6393 75.4379 87.6295 74.9831L87.0266 20.687C87.0117 19.8929 86.8832 19.3103 85.3661 19.2119L77.1925 18.4671C75.4728 18.2753 74.2324 17.1076 74.0693 15.5563C73.9779 14.7033 74.267 13.8305 74.8674 13.1643C75.5123 12.4464 76.4587 12.031 77.4643 12.0236C78.1833 12.0261 79.1371 12.0433 80.3355 12.0654C82.7643 12.1096 86.0901 12.1686 90.3202 12.1686C91.7731 12.1686 93.3297 12.1613 94.9828 12.1441C96.8235 12.1023 98.9386 12.0162 101.113 11.9302C104.236 11.8048 107.466 11.6745 110.275 11.6573L111.08 11.6696L112.2 11.6647C125.142 11.6647 133.135 13.9166 137.351 18.7547C139.965 21.7908 141.396 25.4981 141.497 29.4831C141.494 32.7724 140.41 35.8626 138.277 38.7168C136.147 41.4924 132.33 43.9803 127.872 45.6544C132.911 47.0434 137.442 49.1404 140.192 51.471C143.308 54.1433 144.872 57.8923 144.85 62.6198C144.815 67.721 143.197 71.7675 139.755 75.3617C135.275 79.9588 125.787 82.6385 113.707 82.7319L113.339 82.7713H113.25C112.612 82.7811 111.992 82.7835 111.384 82.7835C109.813 82.7835 108.303 82.759 106.67 82.7319C104.767 82.7 102.694 82.6655 100.152 82.6655C98.951 82.6655 97.6463 82.6729 96.2034 82.6926C94.0636 82.7196 90.0509 82.845 86.1692 82.9679C82.7767 83.0736 79.6016 83.172 78.1734 83.1916H78.1339L78.129 83.1941ZM106.247 74.307C106.238 75.0863 106.228 75.8386 108.18 75.9418C109.269 75.9787 111.738 76.0279 113.015 76.0279H113.734C117.646 76.0279 120.692 75.1207 122.091 73.5449C124.347 71.1381 125.318 67.5931 125.184 62.3543C125.11 52.3437 122.066 49.2461 112.155 49.0741L105.921 49.0937L106.25 74.307H106.247ZM111.706 18.0442C110.206 18.0885 107.164 18.1794 106.46 18.4916C105.894 18.7498 105.598 19.0472 105.632 19.8708L105.862 43.2575L112.637 43.0485C119.615 42.7855 122.664 41.6054 122.538 31.4326C122.437 24.9228 121.357 21.1221 119.135 19.475C118.251 18.8776 116.178 18.0958 111.706 18.0442Z" fill="#52AF45"/>
<path d="M112.168 47.1245L103.935 47.1491L104.288 74.3316C104.256 76.6892 105.697 77.761 108.076 77.8864C109.247 77.9282 111.738 77.9749 113.028 77.9749C113.203 77.9749 113.356 77.9749 113.48 77.9725C113.564 77.9725 113.648 77.9725 113.732 77.9725C117.718 77.9725 121.572 77.0702 123.556 74.8306C126.106 72.1117 127.287 68.1241 127.139 62.3002C127.055 50.9129 122.884 47.304 112.166 47.1221L112.168 47.1245ZM120.695 72.1756L120.658 72.2149L120.621 72.2567C119.877 73.0975 117.626 74.0784 113.735 74.0784H113.52H113.47H113.421L113.028 74.0808C111.775 74.0808 109.376 74.0341 108.254 73.9948C108.237 73.9948 108.22 73.9948 108.202 73.9923L107.903 51.0383L112.141 51.026C120.982 51.1834 123.158 53.4082 123.225 62.3371V62.374V62.4084C123.346 67.1039 122.541 70.2089 120.695 72.1805V72.1756Z" fill="white"/>
<path d="M124.495 31.408C124.384 24.1681 123.082 19.9716 120.307 17.9115C118.266 16.5274 114.911 16.1291 111.689 16.0922C109.235 16.1635 106.594 16.2545 105.605 16.7363C104.251 17.3509 103.611 18.4548 103.678 19.9544L103.925 45.2635L112.699 44.9931C120.996 44.6784 124.633 42.4093 124.498 31.4056L124.495 31.408ZM107.799 41.249L107.594 20.2322C108.647 20.0847 110.693 20.0232 111.721 19.9913C115.859 20.0453 117.483 20.7435 118.034 21.0877C119.635 22.3562 120.492 25.8472 120.579 31.467C120.631 35.6266 120.08 38.3333 118.946 39.4986C117.994 40.4746 116.023 40.9687 112.548 41.1015L107.799 41.2465V41.249Z" fill="white"/>
<path d="M141.477 50.0033C139.412 48.2529 136.526 46.655 133.2 45.3545C135.96 43.8082 138.26 41.9496 139.817 39.919C142.238 36.6813 143.451 33.2002 143.454 29.5347V29.4831V29.4315C143.34 24.9916 141.747 20.864 138.846 17.4935C134.215 12.1809 125.753 9.71518 112.202 9.71518C111.824 9.71518 111.444 9.71518 111.061 9.72009L110.357 9.7078H110.31H110.263C107.419 9.72501 104.17 9.85776 101.029 9.98314C98.83 10.0716 96.7545 10.1552 94.9162 10.197C93.3175 10.2142 91.7658 10.2216 90.3179 10.2216C86.11 10.2216 82.7941 10.1626 80.3751 10.1184C79.1644 10.0962 78.2008 10.079 77.4966 10.0766C75.8954 10.0864 74.4203 10.7379 73.4073 11.8663C72.4412 12.943 71.9717 14.364 72.1224 15.7653C72.3868 18.2433 74.3215 20.1068 76.9332 20.3994L76.9752 20.4043L77.0172 20.4092L85.0772 21.1442L85.6652 74.0833C85.6504 74.0833 85.6356 74.0857 85.6183 74.0882L77.7931 74.8233C76.3921 74.9708 75.1468 75.5805 74.2424 76.5417C74.0868 76.7089 73.9607 76.8932 73.8273 77.0751C74.5711 79.2582 74.8601 81.6109 74.7119 83.9316C75.6483 84.7035 76.8319 85.1461 78.1316 85.1461C79.6487 85.1288 82.8361 85.0281 86.2113 84.9223C89.9102 84.8068 94.1008 84.6765 96.2257 84.647C97.6588 84.6273 98.956 84.62 100.149 84.62C102.672 84.62 104.688 84.6519 106.636 84.6863C108.281 84.7134 109.801 84.738 111.385 84.738C112.002 84.738 112.627 84.733 113.275 84.7257H113.455L113.635 84.7035L113.818 84.6839C126.375 84.5732 136.328 81.6797 141.149 76.7359C144.978 72.7336 146.77 68.2643 146.807 62.6419C146.832 57.3097 145.04 53.0616 141.48 50.0082L141.477 50.0033ZM138.334 74.0218C134.24 78.2232 124.945 80.7136 113.593 80.7873L113.22 80.8267C112.593 80.834 111.982 80.839 111.385 80.839C107.982 80.839 104.874 80.7209 100.149 80.7209C98.9412 80.7209 97.6267 80.7283 96.1738 80.748C92.1093 80.8021 81.1707 81.2077 78.1464 81.2446H78.1316C77.1951 81.2446 76.7553 80.6349 76.78 79.9761C76.7306 79.5114 77.2223 78.7985 78.1588 78.7001L86.0309 77.9602C87.9977 77.7512 89.631 77.1071 89.589 74.9462L88.9861 20.6649C88.9441 18.5039 87.6914 17.4124 85.4997 17.2674L77.373 16.5274C76.5107 16.4315 76.0758 15.9103 76.0165 15.3523C75.9473 14.7008 76.5329 13.9805 77.4793 13.9731C79.5573 13.9829 83.9653 14.1182 90.3179 14.1182C91.7782 14.1182 93.3422 14.1108 95.0051 14.0936C99.5367 13.9903 105.558 13.6339 110.287 13.6044L111.046 13.6191C111.434 13.6142 111.822 13.6142 112.202 13.6142C123.44 13.6142 131.801 15.3621 135.871 20.0331C138.25 22.7938 139.451 26.0586 139.538 29.5347C139.538 32.1726 138.693 34.899 136.703 37.5589C133.711 41.4555 127.045 44.6096 120.428 45.593C120.24 45.6126 120.075 45.8191 120.084 45.9126C120.094 46.0011 120.196 46.1633 120.366 46.1633C120.376 46.1633 120.386 46.1633 120.396 46.1633C127.492 47.0139 135.068 49.696 138.92 52.9608C142.048 55.6429 142.905 59.2248 142.888 62.6198C142.856 67.6153 141.144 71.0914 138.334 74.0267V74.0218Z" fill="white"/>
<path d="M26.4607 103.385C26.7993 103.547 26.9673 103.628 27.3058 103.791C31.0096 102.421 34.7233 101.091 38.4766 99.8595C38.0689 99.6653 37.8712 99.5719 37.4858 99.3875C37.975 99.0974 38.2196 98.9524 38.7138 98.6574C40.4088 99.4834 41.3749 99.9456 43.5246 100.981C43.0699 101.273 42.8426 101.418 42.3805 101.708C41.8938 101.477 41.6541 101.367 41.1896 101.145C39.4896 103.466 37.6908 105.711 35.7982 107.879C36.2306 108.083 36.4529 108.184 36.9026 108.393C36.2182 108.843 35.8624 109.079 35.1162 109.582C33.3792 108.769 32.5959 108.385 31.0961 107.65C31.8374 107.168 32.1882 106.942 32.8652 106.509C33.352 106.743 33.5991 106.861 34.1056 107.104C34.9556 106.19 35.3336 105.772 36.0329 104.985C34.3428 104.194 33.567 103.825 32.0795 103.122C30.7749 103.611 30.0929 103.872 28.6203 104.452C29.0799 104.676 29.3097 104.789 29.7791 105.017C29.0972 105.435 28.7438 105.656 27.9952 106.119C26.6115 105.428 25.9493 105.096 24.5928 104.435C25.376 103.995 25.7467 103.786 26.4558 103.387L26.4607 103.385ZM36.9595 103.953C38.2542 102.426 38.7484 101.777 39.8281 100.437C37.5179 101.194 36.3763 101.561 33.8042 102.478C35.0001 103.038 35.6252 103.331 36.9595 103.953Z" fill="white"/>
<path d="M23.8169 120.997C24.3407 121.275 24.5853 121.407 25.0671 121.663C24.8522 118.278 24.5507 114.895 24.3036 111.512C23.7897 111.259 23.5303 111.129 22.9891 110.861C22.9397 110.195 22.9175 109.863 22.8755 109.209C24.6669 110.069 25.4205 110.426 27.1501 111.239C29.3393 112.27 31.2764 114.384 31.3876 116.818C31.4593 118.401 30.4462 118.949 29.2973 118.804C30.7773 120.031 31.9213 121.579 31.9633 123.293C32.0177 125.481 30.1695 126.11 27.9531 124.837C26.3396 123.908 25.7022 123.536 23.9108 122.528C23.8811 121.929 23.8614 121.621 23.8194 120.994L23.8169 120.997ZM27.3478 117.164C28.808 117.902 29.6679 117.486 29.6234 116.144C29.579 114.843 28.6301 113.6 27.1723 112.887C26.5843 112.599 26.2976 112.459 25.7244 112.176C25.8183 113.907 25.8825 114.772 26.0011 116.486C26.5348 116.756 26.7992 116.889 27.3453 117.164H27.3478ZM27.9358 123.249C29.2602 123.967 30.2238 123.617 30.1818 122.248C30.1349 120.778 29.0304 119.465 27.5257 118.701C26.9475 118.408 26.6707 118.268 26.1074 117.983C26.2334 119.775 26.2976 120.665 26.3816 122.41C26.9969 122.742 27.2983 122.905 27.9358 123.251V123.249Z" fill="white"/>
<path d="M19.1692 109.814C19.1692 109.814 21.3238 110.637 21.8575 111.239C21.1953 111.239 19.1099 110.293 19.1099 110.293L19.1692 109.814Z" fill="black"/>
<path d="M19.5003 111.239C19.5003 111.239 22.2034 112.437 22.8459 113.194C21.9959 113.118 19.3916 111.785 19.3916 111.785L19.5003 111.239Z" fill="black"/>
<path d="M35.625 129.476C35.625 129.476 31.5307 127.516 30.96 126.811C31.3602 126.848 31.9532 127.067 32.4697 127.288C33.1343 127.573 35.027 128.603 35.4742 129.169L35.625 129.476Z" fill="black"/>
<path d="M19.4287 113.568C20.1255 113.875 20.8618 114.165 21.2448 114.197C20.9384 113.836 20.165 113.376 19.4386 112.992C19.4831 113.182 19.4781 113.381 19.4287 113.568Z" fill="black"/>
<path d="M35.6252 127.696C35.6252 127.696 33.1098 126.715 32.5391 126.009C32.9393 126.046 33.5324 126.265 34.0488 126.486C34.7134 126.772 35.0297 126.823 35.4769 127.389L35.6276 127.696H35.6252Z" fill="black"/>
</g>
<defs>
<clipPath id="clip0_19_3160">
<rect width="384" height="139" fill="white" transform="translate(0.679688 0.390488)"/>
</clipPath>
</defs>
</svg>
