<?xml version="1.0" encoding="UTF-8"?>
<svg id="Layer_1" xmlns="http://www.w3.org/2000/svg" version="1.1" viewBox="0 0 1599.2 594.4">
  <!-- Generator: Adobe Illustrator 29.7.1, SVG Export Plug-In . SVG Version: 2.1.1 Build 8)  -->
  <defs>
    <style>
      .st0 {
        fill: #e00700;
      }

      .st1 {
        fill: #00a3ea;
      }

      .st2 {
        fill: #350593;
      }

      .st3 {
        fill: #fae25f;
      }

      .st4 {
        fill: #fff;
      }

      .st5 {
        fill: #f1b53d;
      }

      .st6 {
        fill: #269f00;
      }
    </style>
  </defs>
  <path class="st4" d="M316.5,39.3c14.9,30.4,17.3,51.8,17.5,68,.2,16.2,6.5,41.8-20.7,86.4,4.9,26.1,9.2,55.5-25.6,100.4,0,0,32.3,34.7,26.1,79.1l-7.8,33.8s16.3,8.6,15.1,26.5c-1.2,17.9-6.4,22-6.4,22,0,0,1.3,33.5-3.2,42.1-4.6,8.6-19.6,44.2-42.5,58.3-23,14.2-15,20.9-35.8,23.2-20.8,2.3-38.1-22.2-45.4-37.9l-21.4,11.9-66.2-39.3-2-18.5s-26.3,7.5-44.3,4.3c-17.9-3.1-26.9-11.2-31.1-41s23.8-46.9,23.8-46.9c0,0,12-2.1,36,0,24,2.1,40.9-5.2,40.9-5.2,0,0,4.5-19.4,16.5-32.4,12-13,14.1-9.4,17.6-21.9l.4-5.9s-33.4-14.3-54.4-29.1c-21-14.8-31-21.5-32.7-27.8-1.7-6.3-5.7-25.8,8.3-38.5s31-12.7,31-12.7c0,0,31,25.6,35.8,28.9s40.5,20,40.5,20l3.2-1.6s-8-3.9-15.7-18.4-15-27.2-14.5-36.5,7.5-13.6,15.6-23.6c8-10,16.5-26.7,26.3-35.3s8-8.5,8-8.5c0,0-14.3-5.9-23.3-18-9-12-22.3-42.2-22.3-42.2,0,0-5.8-34.4-4.8-44.6,1-10.3,5-20.9,5-20.9l14.8,1.8s20.6,11,40.8,29c20.2,18,35.8,41.6,35.8,41.6l2.1,1.3,1.3-9.4s3.7-28.2,11.2-49.2c7.5-21,21-34.2,21-34.2l11.9,8.5,13.7,12.4Z"/>
  <g>
    <path class="st1" d="M226.8,437.1l-59.5,36.5c-1.4,1.7-1,13.1-.9,16,.4,17.4.1,39.7,2.2,56.7.1,1-.4,1.2,1.1,1l14.7-8.3c.5-3.5.9-7.1,1.5-10.7-4.1-4-6.7-10.2-6.9-16.6-.3-17.5,8.6-40.4,23.2-50.2,8.2-5.5,14.5,2.1,14.5,10,0,4.2-1.6,7.7-3.7,8.9-2.1,1.2-3.6-.1-3.7-3.7,0-1.7.4-3.4.9-4.4-1-1.8-4.2-3.6-8.1-1.1-10.7,6.8-15.2,22.9-15.5,35.6,0,2.7.6,6,2,8.9,5.6-16.7,17.1-22.1,30.5-30.9,3.6-2.3,6.6-2.8,9.1-6.2l.7-40.7-2-.8Z"/>
    <path d="M300.5,193.6c-1.7.4-1.8-1.1-2.4-2.2-1.4-2.6-7.7-13.5-7.7-15.3,2-6,5.6-11.4,7.8-17.4,9.7-27.1,7.1-71.7-4-98.3-1-2.5-4.4-7.3-4.9-8.8-1.5-5.5,3.9,1.5,4.9,3,13.6,22,16.6,68.9,11,93.8-1.8,8-8.9,21.6-8.9,28.4,0,4.8,4.4,11.6,4.2,16.8Z"/>
    <path d="M245.8,216.8c3.6,4.3-1.3,14-6.6,14.8-12.8,2-8-16.5.9-16.9,1.4,0,4.9,1.1,5.8,2.1Z"/>
    <path d="M187.9,367.2c-6.5-2.9-14.8-4.7-22-7.1-1.1-.4-2.1.6-1.7-1.5,9.1,2,18.8,3.7,27.4,7.3,1.4.6,3.5,1.1,4.1,2.7-2.7-.1-5.3-.9-7.9-1.4l5.7,3.2c.3,1.8-1.3,1.1-2.3.9-3.7-.6-10.6-3.5-14.3-5s-3.2-.9-3.4-2c4.8.8,9.5,2,14.3,2.9Z"/>
    <path d="M309.1,200.1c1.1,1,0,1.3-1.1,1.4-3.1.4-10.5-.4-13.1-2-1-.6-1.9-.9-1.6-2.3l15.8,2.9Z"/>
    <path d="M199.7,100.1c14.2,14.1,27.7,30.6,32.7,50.5-5.6-5.3-8.5-13.4-12.6-20-7.7-12.5-17.9-24.4-29-34.2-4-3.5-17.7-12.6-19.5-15.7-.5-.8-1.1-1.7.5-1.2,9.8,3.3,20.6,13.4,27.9,20.5Z"/>
    <path d="M332.7,96.2c2,13.9,2,28,0,41-2.9,18.4-11.2,33.9-20,50-5.1-.6-.9-9.1.4-12.2,11.9-28.7,19.1-50.4,16.3-79.1h0s-.2,0-.2,0c-.6,0-1.2-.2-1.8-.3.9,12.5.4,25.1-2.2,37.6-4,19.1-12,36.2-18.9,54.3,0,3.2,2.4,4.9,3.4,7.4,1.5,3.9,5.6,16.1,6,19.8.4,4.7-.6,8.7-1.1,13.3l-6.8,5.8c2.8.2,4.5-4.1,7.2-3.2-1.4,5-1.8,10.3-3.4,15.3-3.4,10.8-10.1,25.7-16.8,34.8-3.7,5-11.3,9.7-8.6,16.8,1.8,4.8,10.4,13.4,13.7,18.6,10.3,16.5,12.3,28.4,12,47.8-.3,24.3-8,47-20.4,67.7-1.7,2.8-7.5,11.8-9.4,13.5-3.6,3.3-9.4,0-13.7-.8,14.7-17.4,27-41.1,31.9-63.5,6.7-30.3,4.9-43.9-15.5-66.9-.4-.4-.8-.6-1.4-.5,1.7-2.3,5.7-2.6,6.4-5.7l-8.2,2.9c-4.2-5,6.3-3.1,5.4-7.9l-7.9,2.1v-3.5c5.3-1.5,2.7-2.3-.8-3.4-.5-4.3,10.9-19.1,13.5-23.8,4.5-8,8.9-17.9,11.3-26.8.9-3.5,1.4-11.3,2.7-13.8,1.1-2.2,6.9-4.8,8.4-7.3-1.6-1-7.6,5-7.9,4.7.2-8,.8-16.4-2.1-24l1.5-.8c.9.3,4.1,1.3,4.2-.3l-5.8-1-1.4-2.6-.4,2.2h-5.3c.7,1.4,5.4.7,6.3,1.5.2.2,1.4,4.6,1.5,5.3,2.6,17.5-5.6,45.5-14.2,61.1-3.4,6.2-13.5,17.7-15.3,22.7-1.6,4.5,1.5,6-5.6,7,.7,2.1,4.8-.4,5.8.3.7.5,1.7,3.7,1.1,4.7-1.1,1.6-7.8,3.1-8.3,6.1l10-3.9,1.1,3.6-5.4,5c3.3-.2,5.1-4.1,8.6-2.5,2.6,1.2,11.4,13.4,13,16.4,15.4,27.4-6.3,86.1-26.7,107.7-.7.7-2.2,2.6-2.9,2.9-3.6,1.7-15.6-6.7-18.6-9.3-2.4-2-8.9-8.8-10-11.6-4.3-10.6,6.8-20.8,12-29.5,10.8-17.9,16.6-43.4,32-56.9,3.1-2.7,6.6-4.6,9.7-7.1-8.8,1.5-15.9,10-20.5,17.1-7.5,11.4-11.3,24.6-18.3,36.2-5.7,9.5-24.6,31.1-26.4,39.7-.4,2-.3,3.3,0,5.3-.3.3-3.4-1-4.1-1.3-17.6-8.1-55.4-27-58.6-28.1-2.1.6-31.7,17.3-40.6,21.5,3.3-12.9,6.6-25.8,14.9-36.3,7.9-10.1,19.6-15.2,22.1-28.9,1.4-7.9,5.2-15.8,8.4-23.6,4.9-12,13.9-21.8,22.1-32.4-1.3-.3-1.7.7-2.5,1.4-1.4,1.2-3.8,3.8-5.1,5.3-10.6,11.6-18.5,25.5-24.3,40h-3.2c-1.1-3,7.1-17.3,6.4-18-.7-.6-1.7,0-2.3.9-2.9,4.4-4.3,9.9-6.8,14-1.2,2-3.2.9-2.7-1.3.7-3.1,3.7-6.5,3.3-10-3.4,2.3-4.8,6.6-6.8,10-6.8-4.1-14.1-7.4-20.9-11.3-9-5.3-36.8-21.7-42.2-28.8-12.7-16.8,11.1-52.5,29.3-57.5l27.5,23.6c8.4,5.6,39.2,22.3,48.1,23.7,1.5.2,2.8-.7,4-.5,2,.4,9.2,5.5,11.8,6.8,13,6.2,29.2,8.6,43.2,4.5,0-1.2-3.1-.8-4-.7-14,.7-21.6-.6-34.5-6.3-15-6.7-27.5-16.3-34.5-31.5.7-.9,2.7-5.4,3.8-5.3,1.6.3,4.9,4.6,7.8,5.9,2.9,1.3,6.6,2.1,9.8,2,.4-2.1-.6-1.1-1.6-1.6-6-2.9-10.9-8.5-13.1-14.9-.6-1.8-2.3-8.9-2.4-10.6-.1-3.6,8.4-9.4,8.5-13.8-.7-.7-8.6,6.8-10.4,6.9-1.8.1-5.9-7.4-8.1-8.7,10.8-13.9,19.3-31.8,31.4-44.5,13.7-14.3,36-20.8,55.5-17.5,11,1.8,21.4,8.6,31.2,13.6.8-.9-10.6-16.7-11.7-18.7-21.7-37.1-13.3-89.4,10.1-123.9.8-1.2,5.4-7.5,5.9-7.7,2.6-1.3,7.1,2.4,9.1,4.2,8.7,8.3,15.8,18.6,21.3,29.9,1.8-1,3.8-1.7,5.8-2.1-6-12.3-14.1-23.4-24.3-32.7-2.2-2-7.1-6.6-9.8-7.1-2.2-.5-4.4,2.1-5.8,3.6-16,17.8-28.8,56-30.8,79.7-.3,2.9.2,6,0,9l-12.2-18.1c-14.9-19.3-49.1-49.5-73.1-54.7-11-2.4-11.3,3.5-12.7,12.4-5.6,34.3,2,67.7,21.7,96.2,6.6,9.6,15.3,16,24.7,22.7-4.8,6.3-11.3,11.2-16.1,17.6-4.7,6.3-8.4,14.4-12.9,20.9-4.5,6.7-15.6,18.3-17.6,25.5-3.1,11,9.7,34.1,16.1,43.3,3.6,5.1,8.5,8.3,12.5,13-13.6-6.1-27.5-13.1-39.9-21.4-4.4-3-9.7-6.6-14-10.2-6.9-5.7-12.7-12.9-19.9-18.3-10.8-2-24.4,3.3-32.6,10.4-17,14.5-20.3,41.1-1.7,55.6,6.9,5.4,15.7,11.5,22.9,16.5,17.2,11.7,35.4,22.9,55.1,29.9-1.7,3.8-2.5,9.7-4.4,13.2-1.7,3.1-11.4,10.4-14.6,14.1-4.9,5.7-9.8,13.8-13.2,20.5-4.3,8.3-1.6,10.4-12.7,12.4-9.5,1.7-25.3,1.6-35,.8-6.1-.5-13.1-2.8-19.4-2.9-11-.2-28.6,12.4-32.5,22.8-8.1,21.4-4.7,58.8,16.7,71.9,5.1,3.1,13.3,2.5,19.4,2.2,11.9-.6,23.7-3.4,35.5-5.1,1,7.2.8,11,1.5,16.4,0,.6.4,1.2.9,1.6,11.9,8.6,57.3,34.9,66.6,39.8.7.3,1.4.4,2.1,0,7.4-3.5,18.7-11.4,18.9-10.8,6.4,26.6,38,43.6,63.1,30.4,27.9-14.7,64.3-60.3,67-92.2.6-6.7-1.6-18.3-.5-23.5.5-2.6,4.7-8.7,5.9-12,5.8-16.1-.1-31.2-12.4-42.1,6.7-19,8.4-40.8,7.1-60.9-.6-8.5-3.8-16.9-8-24.2l-17.4-22.7c-.9-1.9-.4-3.5.4-5.3,2.1-4.1,7.2-9.1,9.8-13.1,11-17,21-41.1,19.5-61.6-.5-6.8-3.8-13.3-4.2-19.4-.7-9.2,9.4-24.2,13.2-33.3,8.8-21.1,12-45,9.3-68.1l-6.1-.6ZM195.8,151.6c-22.2-18.7-37.9-67.3-34.4-95.4.5-3.8,1.8-7.7,2.7-11.6.7-2.8,2.9-4.9,5.8-5.3s.3,0,.5,0c12.5-.2,48.2,30.1,57.4,39.7,10.1,10.5,21.7,26,27.8,39.3,2.1,4.6,2.3,9.5,3.8,14.1,3.8,11.8,9.1,21.5,16,31.7l-9.6-5.1c-13.3-4.7-28.4-7.2-42.3-3.3-3.7,1-9.5,5.4-12.9,4.7-3.7-.7-11.8-6.3-14.9-8.8ZM171.5,258.2c-4.2-11.5-13.7-22.5-4.7-34.4,1.2,3.1,4.1,6.3,5.2,9.1,1.6,4.1,2.7,18.9,1.3,23.2-.2.7-1.3,2.5-1.8,2.1ZM77.7,281c-.9,5,0,8.3-.6,13.1-17.6-22,4.7-53.1,29.8-53.8-1.6,2.2-4.6,2.7-6.8,4.3-11,8-19.9,23.2-22.4,36.4ZM277.6,448.3c-.5.9-5.7,3.6-6.1,3.6h-11.1c-.8-.7,2.3-3.5,2.9-4,5.7-4.8,7.8,0,14.3.4ZM233.1,421.1c6,6.8,11.6,13.4,19.6,18.1,2.7,1.6,6.1,2.7,8.8,4.1.8.4,1.9.5,1.8,1.8-2.1.5-4.8,4.1-6.3,4.5-4.5,1.4-17.2-7-19.8-10.8-.5-.8-4.1-6.9-4.1-7.3v-10.4ZM40.2,492.5c-15.1-13.9-16.8-36.5-11.6-55.4,2.4-8.7,12.9-21.8,22.2-23.1,8.7-1.2,14.3,18.4,15.6,24.9,2.9,14-.9,43-11.2,53.5-5.3,5.4-9.5,5.1-15.1,0ZM92.6,453.7c.9,13,1.8,23.6,2.8,39-.7.9-20.1,3.3-22.7,3.4-4.7.2-10.2.2-15.2.2-.4-.3,3.7-6.5,4.2-7.6,2.7-5.6,5-13.4,6.3-19.5,4.3-19.5,2.7-39.9-8.4-56.8,1.7-2.3,21.6,1.8,25.5,2.1,4.4.3,11.3.4,15.7.1,5.7-.4,11.8-2.4,17.5-2.9l-2.9,11.1c-5.4,4.3-19.5,10.5-23.6,15.4-.7,3.9.3,10.8.6,15.4ZM159.1,546.1l-57-33.4-5.9-70.1s46.3,21.2,66.6,33.5c-.6,21.7.9,45.2,1.9,72.7l-5.6-2.7ZM163.9,471.2l-65.8-32.7c1.7-2.5,5.8-4,6.9-4.7,15.4-9.5,32.7-19.5,48.6-28.1,3.5-1.9,6.8-3.6,10-4.6,16,8.7,34.8,16.9,51.2,25.1,2.1,1,10.6,4.6,11.5,6.8-.6,1.5-6,4.6-7.5,5.6-17.2,11.8-36.8,21.9-54.8,32.7ZM184.3,539l-14.7,8.3c-1.4.2-1,0-1.1-1-.5-17.3-1.1-38.3-1.5-55.8,0-2.9-.1-11-.3-14.6l59.9-37.9c.6-.4,1.5,0,1.5.8v38.6c-4.6,3.7-7.6,5.6-11.1,8-13.5,8.8-23,13.7-28.6,30.6-2.5,7.5-3,15.5-4.2,23.1ZM238.1,574.2c-22.5,8.4-42.8-13-46.4-33.9-5.3-30.4,21.2-63.8,51.2-40.8,22.7,17.4,24.4,63.9-4.8,74.7ZM311.3,481c-1.2,15.4-23.1,53.2-33.9,64.7l-18.7,16.8c-.9-.3-.2-1.5,0-2.1,6.6-16.4,7.8-31.1-.1-47.4-3.3-6.8-11.5-17.6-23.4-22.1-1-.4-7.1-2.5-12.5-2.2-2.8,0-4.9.2-4.9.2,11.2-8.2,17.7-11.7,22.1-18.1,1-1.4,5.3-7.9,2.9-9.4-3.3,4-6.6,8.1-11.1,10.8v-30.9c1.8.6,2.4,2.7,3.7,3.9,10.3,9.1,26.8,14.4,40.3,11,13.8-3.5,15.9-19.7,25.6-27.8,1.7,6.3,4.6,12.3,6.1,18.6,2.5,10.4,4.7,23.4,3.9,34.1ZM313.4,451.2c-1.2-4-1.9-8.2-3.3-12.2-1.2-3.7-6.1-13.2-6.4-15.7-.2-1.7,3-13,4.3-13,10.4,9.9,16,29.5,5.4,40.9Z"/>
  </g>
  <path class="st0" d="M1102.6,351c-14.1-1.1-33.1-.4-45.3-1.9h-.4c-2.3,0-5.3-2.3-5.3-5.3s1.9-5,5.3-5l15.6,1.1c3.4,0,3.8-2.3,3.8-5l8-116.2c.8-15.6.4-38.1-21-39.2-21.3-1.5-38.5,21.7-40,55.2l-5.7,95.6c-.4,3.8,0,5.7,3.8,5.7l13.7,1.5c3.4,0,5.3,2.3,5.3,5s-2.3,5.3-4.6,5.3h-.8c-15.6-1.1-31.2-2.7-46.9-3.8-14.1-1.1-28.2-.4-40.4-1.5h-.8c-2.3,0-4.6-2.3-4.6-5.3s1.5-5,5-5l14.5.8c3.8,0,5-1.5,5.7-6.1l6.9-114.7c1.1-16,1.5-38.1-19.8-39.6-21.7-1.1-40,27.8-41.1,55.2l-5.7,95.6c-.4,3.8,0,5.7,3.8,5.7l14.1,1.5c3,.4,5.3,3,5.3,5.3s-3,5.3-5.3,5h-.8c-12.2-1.1-33.9-3.4-48-3.8-15.6-1.1-27.4-.4-43-1.5h-.8c-2.3,0-5-2.7-5-5.7.4-2.3,2.3-4.2,6.1-4.6l18.7.4c3-.4,4.6-1.5,5.3-5l8-137.5c.4-6.5-2.3-10.3-9.5-10.7l-19.1-2.7c-3-.4-4.6-3.8-4.6-6.5s1.9-5,5-4.6c17.9.8,54.5,1.5,74.3.8,3,0,5,1.9,5,5l-1.5,27.4h.8c10.3-21.3,30.5-32.4,53.7-31.2,22.9,1.5,46.9,15.2,52.6,38.1h.8c4.6-12.6,22.1-33.9,59-31.2,32.4,1.5,52.6,25.5,51.1,58.7l-7.2,110.5c-.4,3.4.4,4.6,3.8,5l19.8,2.7c3.4.8,5.3,3,5.3,5.7s-2.7,4.6-5,4.6c-16.4-.8-32.4-2.3-48-3.8Z"/>
  <path class="st1" d="M1199.7,420c-13.7-1.9-46.9-5-59.1-6.1l-.4-.4c-2.7,0-4.6-2.7-4.2-5.7.4-2.7,2.7-5,5.7-4.6l29.3,1.9c3.4,0,5.7-1.9,6.1-5l25.9-222.5c.8-6.1-2.3-10.3-9.5-11.8l-25.9-4.2c-2.3,0-4.6-3-4.2-6.1.4-2.7,2.3-5.3,5.3-5.3,17.9,2.3,62.5,6.9,81.9,9.1,3,.4,4.2,2.3,3.8,5.3l-5,31.2h1.1c9.5-22.9,27-38.5,53-35.4,33.1,3.8,72.8,52.2,66.7,102.9-5.7,48.4-48,88.4-87.6,83.8-26.3-3-39.6-21.3-44.2-46.1l-1.1-.4c-.8,7.6-1.5,28.2-3,41.5l-7.6,63.2c-.4,3.4.4,5,3.4,5.7l37.7,6.9c3,.4,4.2,3,3.8,5.7-.4,3-2.7,5-5,4.6-16.4-1.9-51.1-6.5-67-8.4ZM1317.1,257.3c8.4-71.6-.4-83-21-85.3-25.5-3-44.6,19.8-51.4,76.6-6.1,54.9,5.7,83.4,32.4,86.5,21,2.3,31.6-6.5,40-77.7Z"/>
  <path class="st5" d="M1371.9,187.2c-3,0-4.2-2.3-3.8-3.4,0-1.9,1.5-3.4,4.2-4.6,19.4-7.2,36.6-24,38.5-42.7.4-7.2-2.7-13-12.2-13.7-19.4-1.9-28.2-15.2-27-28.2,1.1-12.6,11.8-25.1,29-23.6,19.4,1.9,32,20.6,29,51.1-2.7,27.8-21.7,55.6-48.8,64-2.7.8-6.5,1.5-8.8,1.1Z"/>
  <path class="st5" d="M1450.8,354.2c-1.6,2.5-3,3.4-4.9,3.7-1.9.2-3.9-.7-4.3-3.7-.8-3.7.1-15-3.1-35.7-3.3-20.7-6.1-31.9-6.5-34.5-.2-1.9,1.1-3.6,3-3.8,1.5-.2,3.1.4,4.1,2.2,12,19.7,21.9,32.3,35.3,41.8,12.6,8.9,25.7,12.6,44.5,9.6,26-3.9,37-14.8,34-32.9-1.7-10.5-6.6-16.9-24.6-19.7-23.1-4.1-44.3-4.7-68.5-8.3-25.4-4.2-35.5-20.7-39.1-44.4-1.5-9-1.1-19,.6-27.3,5.3-23.3,25.1-37.2,47.7-40.6,12.1-1.8,25.7.4,36.8,5.9l7.7,3.7c1.6.6,2.4.5,3.1.4,1.5-.2,2.6-1.1,3.6-2,3.8-3.9,11.4-13.6,13.6-17.7,1.7-2.1,3.2-2.3,3.9-2.4,2.3-.3,4.7.6,5,3.6.7,2.6.3,14.9,2.7,32.3,1.7,10.5,5.7,25.4,6.4,31.1.7,2.6-1.1,4-3,4.2-1.5.2-3.1-.4-4.5-2.1-6.7-10.7-10.7-16-20.1-27.1-14.8-17.4-37.6-22-53-19.7-31.3,4.9-35.1,23.8-33.6,33.6,2,13.6,7.7,19.4,29.1,21.5,19,1.9,45.4,4.1,64.5,6.8,26.1,3,38.1,16.5,42.4,46.7,2.8,16.6-.4,31.9-10.6,43.1-9.8,11.2-24.6,18.7-42.3,21.6-15.1,2.2-31.4.3-45.3-6.8-5.4-3.2-7.3-3.3-9.6-3.1-2.6.3-5,3.3-6.9,6.6l-8.3,13.7Z"/>
  <g>
    <path class="st2" d="M390.7,526.5h17.6v-104.5h-32.6v20.9h-14v-33.4h108.1v33.4h-14v-20.9h-32.6v104.5h17.6v13h-50v-13Z"/>
    <path class="st2" d="M468.7,497.5c0-23.7,17.2-43.7,43.3-43.7s43.3,19.8,43.3,43.7-17.2,43.7-43.3,43.7-43.3-19.6-43.3-43.7ZM541,497.5c0-18.6-11.9-31.8-29-31.8s-29,13.2-29,31.8,11.9,31.8,29,31.8,29-13,29-31.8Z"/>
    <path class="st2" d="M576.6,579.1c-7.9,0-14.6-4.5-14.6-11.1s3.8-8.7,8.5-8.7,7.7,3.6,8.9,7.3c3.2-1.2,6.3-3.8,10.1-9.5,2-3,4-7.1,6.3-11.9l5.1-10.5-31.6-67.4h-11.7v-12h39.3v11.7h-13.2s23.9,54.1,23.7,54.1l24.1-54.1h-13.8v-11.7h38.7v12h-11.5l-39.7,85.3c-2.2,4.5-4.3,8.5-6.9,12-6.3,9.1-13.2,14.2-21.7,14.2Z"/>
    <path class="st2" d="M709.2,422.6h-12.8v-13h43.9v13h-14.8l36.5,93.8,36.5-93.8h-15.6v-13h43.9v13h-12.6l-48.2,118.9h-8.5l-48.2-118.9Z"/>
    <path class="st2" d="M820.4,517.1c0-15.4,13.6-25.5,32.4-25.5s20,2.4,24.3,4v-11.7c0-4.7-1.4-8.9-3.8-11.9-3.8-4.1-9.9-6.7-18.4-6.7s-10.3,1.8-13,3.6c.6,1.4,1.2,3.2,1.2,4.9,0,4.9-3.6,8.7-8.9,8.7s-8.7-4-8.7-9.1c0-9.7,11.1-19.6,31.2-19.6s21.5,3.8,27.1,9.9c4.3,4.7,6.3,11.1,6.3,18.2v45.8h13.6v11.9h-26.3v-10.7c-6.9,6.7-17.8,12.2-29.2,12.2s-27.9-9.7-27.9-24.1ZM877.1,518.4v-14c-6.3-1.8-14.6-3.4-22.7-3.4-13.4,0-20.1,6.3-20.1,15s6.1,14,17.6,14,18.8-5.1,25.3-11.7Z"/>
    <path class="st2" d="M924.5,529.9c-2.6-4.5-4-10.5-4-17.2v-45.2h-13.4v-12h27.1v54.7c0,4.7.8,8.5,2.4,11.3,2.6,4.9,6.9,7.1,13.8,7.1,10.5,0,19.8-6.7,27.7-14.8v-46.2h-13.8v-12h27.5v72.3h13.4v11.9h-26.7v-15.6c-7.9,9.3-19.4,17.2-31.4,17.2s-18.4-4.1-22.5-11.3Z"/>
    <path class="st2" d="M1012.8,527.7h14.2v-120.9h-14.2v-11.9h27.9v132.7h14.2v11.9h-42.1v-11.9Z"/>
    <path class="st2" d="M1077.2,531.3c-1.6-3.2-2.2-7.1-2.2-11.7v-52.2h-15.6v-12h15.6v-20.3l13.4-5.3v25.7h25.9v12h-25.9v50.2c0,2.8.4,4.7,1.4,6.5,1.6,3,4.7,4.3,9.9,4.3s11.1-2.4,15.8-5.1l-1.8,13c-4.3,2.4-10.3,4.7-18,4.7s-15.2-3.4-18.6-9.9Z"/>
  </g>
  <path class="st3" d="M678.2,359c-32.4,3-51.1-13.3-53.3-37.3-2.7-25.1,10.7-42.7,30.9-52.6,17.9-9.1,42.7-17.9,53.7-22.9,9.1-4.2,9.1-6.9,8.8-12.6l-2.7-25.1c-2.3-23.6-8-31.2-33.1-29-15.2,1.5-31.6,7.6-30.9,14.5.4,3.1,2.7,3.8,5,5.3l3.4,1.5c8.8,4.6,13.7,12.6,14.5,20.6,1.9,18.3-11.4,28.6-25.5,29.7-14.1,1.5-29.3-6.5-31.2-25.1-1.1-12.2,4.6-26.3,19-37.3,13-10.3,32.8-17.5,54.9-19.4,45.3-4.6,71.6,10.7,74.7,42.3l10.3,110.1c1.1,10.3,5.3,15.2,15.6,14.1,16.8-1.5,14.5-31.2,13.3-42.3-1.5-12.6-2.7-22.1-2.7-24-.4-2.7,1.5-4.6,3.4-4.6,1.5-.4,3.8,1.1,4.6,3.8,1.1,7.2,3,17.1,3.8,24.8.8,9.1,1.1,19-.8,28.2-3.4,18.7-14.1,25.9-37,27.8-10.7,1.1-22.9.8-29.7-1.9-11.4-4.2-19-14.1-21-28.2-5.7,24.4-25.5,37.3-48,39.6ZM719.3,248.2c-6.5,3.8-13.3,6.9-20.2,10.3-7.2,3.4-13.7,7.2-18.3,12.2-8,9.1-9.1,20.9-7.2,43,2.3,21.7,6.9,33.1,19,31.6,8.8-.8,19.1-8,24.8-22.9,4.6-11.4,6.5-26.7,5-45.3l-3-29Z"/>
  <path class="st6" d="M334.1,343.4c12.2-.2,56.5-1.8,73-2,5.9,0,11.2-.1,16.1-.1,19.1,0,31.7.5,45.5.5s4.9,0,7.4,0l1.5-.2c45.9-.3,83.6-10.4,100.1-27.5,11.4-11.9,18.3-26.1,18.4-46.4,0-13.8-3.4-28.4-16.1-39.3-15.6-13.3-46.3-24.2-75-27.6,0,0,0,0-.1,0-.7,0-1.1-.7-1.1-1,0-.4.6-1.2,1.4-1.3,26.8-4,53.8-16.8,65.9-32.7,8-10.8,11.5-21.9,11.5-32.6-.4-14.1-5.2-27.4-14.8-38.6-16.5-19-50.3-26.1-95.8-26.1s-3.1,0-4.7,0h-3.1c-19.1,0-43.5,1.5-61.9,1.9-6.7,0-13.1.1-19,.1-25.7,0-43.5-.6-52-.6-3.8,0-6.2,3-5.9,5.6.2,2.3,2,4.4,5.5,4.8l32.9,3c8.9.6,13.9,5,14.1,13.8l2.4,220.8c.2,8.8-6.4,11.4-14.4,12.3l-31.9,3c-3.8.4-5.8,3.3-5.6,5.2,0,2.7,1.7,5.2,5.5,5.2h0ZM532.4,266.3c.6,23.7-4.2,39.9-14.5,51-8,9.1-23.6,12.8-39.8,12.8s-.7,0-1,0c-.5,0-1.1,0-1.8,0-5.2,0-15.3-.2-20-.4-9.6-.5-15.5-4.9-15.3-14.5l-1.4-110.6h33.3c43.4.6,60.3,15.3,60.6,61.6ZM445.2,81c4-2,14.7-2.3,24.6-2.6,13,.1,26.6,1.8,34.9,7.4,11.2,8.4,16.5,25.4,17,54.9.6,44.8-14.2,54-47.7,55.3l-35.5,1.1-1-103c-.3-6.1,2.3-10.6,7.8-13.1Z"/>
  <g>
    <path class="st0" d="M167.4,435.7c5.2-6.2,7.2-8.8,11.6-14.3-9.4,3.1-14,4.6-24.4,8.3,4.8,2.3,7.4,3.5,12.8,6Z"/>
    <path class="st0" d="M214.9,426.4c-16.3-8.1-35.1-16.3-51.2-25.1-4-1.8-6.4,2.7-10,4.6-15.9,8.7-33.5,17.7-48.9,27.2-1,.6-8.8,3.6-7.7,5.1l66.9,33.3c18-10.8,37.6-20.8,54.8-32.7,1.5-1,8.3-4.3,8.4-5.9,0-2-10.3-5.5-12.3-6.5ZM189.4,426.6c-2-.9-2.9-1.4-4.8-2.3-6.9,9.4-14.2,18.6-21.8,27.4,1.8.8,2.6,1.2,4.5,2.1-2.8,1.8-4.2,2.8-7.2,4.8-7-3.3-10.2-4.9-16.3-7.9,3-2,4.4-2.9,7.2-4.6,2,1,3,1.4,5,2.4,3.4-3.7,5-5.4,7.8-8.6-6.8-3.2-10-4.7-16-7.6-5.3,2-8,3.1-14,5.4,1.9.9,2.8,1.4,4.7,2.3-2.8,1.7-4.2,2.6-7.2,4.5-5.6-2.8-8.3-4.2-13.8-6.9,3.2-1.8,4.7-2.6,7.5-4.3,1.4.7,2.1,1,3.4,1.7,15-5.6,30-11,45.2-16-1.6-.8-2.4-1.2-4-1.9,2-1.2,3-1.8,5-3,6.9,3.4,10.8,5.2,19.5,9.4-1.8,1.2-2.8,1.8-4.6,3Z"/>
  </g>
  <g>
    <path class="st6" d="M137.7,485.3c-.2-5.3-4-10.3-9.9-13.3-2.4-1.2-3.5-1.7-5.9-2.9.4,7,.6,10.6,1.1,17.5,2.2,1.1,3.2,1.6,5.4,2.8,5.9,3,9.4,1.3,9.2-4.1Z"/>
    <path class="st6" d="M129.2,495.7c-2.3-1.2-3.5-1.8-5.7-2.9.5,7.3.8,10.9,1.1,18,2.5,1.3,3.7,2,6.3,3.4,5.4,2.9,9.3,1.5,9.1-4.1-.2-6-4.7-11.3-10.7-14.4Z"/>
    <path class="st6" d="M162.7,476.1c-20.2-12.3-42.2-21.9-63.2-32.9l-3.4-.6,5.1,67.8.9,2.3,60.2,36.2h2.3c.9-24.4-1-48.6-1.9-72.9ZM131,520.7c-6.5-3.8-9.1-5.3-16.4-9.4-.1-2.4-.2-3.7-.4-6.2,2.1,1.1,3.1,1.7,5.1,2.7-.9-13.8-2.1-27.5-3.1-41.3-2.1-1-3.1-1.6-5.3-2.7-.2-2.7-.3-4.1-.5-6.7,7.3,3.5,10.3,4.9,17.3,8.3,8.9,4.2,16.7,12.8,17.1,22.7.3,6.4-3.8,8.7-8.5,8.1,6,5,10.6,11.3,10.8,18.3.2,8.9-7.3,11.5-16.2,6.3Z"/>
  </g>
  <path d="M95.4,459.6s8.7,3.3,10.9,5.8c-2.7,0-11.1-3.9-11.1-3.9l.2-1.9Z"/>
  <path d="M96.8,465.4s10.9,4.9,13.5,8c-3.4-.3-14-5.7-14-5.7l.4-2.2Z"/>
  <path d="M162,539.6s-16.6-8-18.9-10.8c1.6.1,4,1,6.1,1.9s10.4,5.3,12.2,7.6l.6,1.3Z"/>
  <path d="M96.5,474.9c2.8,1.2,5.8,2.4,7.4,2.6-1.2-1.5-4.4-3.3-7.3-4.9.2.8.2,1.6,0,2.3Z"/>
  <path d="M162,532.3s-10.2-4-12.5-6.9c1.6.1,4,1,6.1,1.9,2.7,1.2,4,1.4,5.8,3.7l.6,1.3Z"/>
</svg>